<?xml version="1.0" standalone="no"?>
<!DOCTYPE svg PUBLIC "-//W3C//DTD SVG 20010904//EN"
 "http://www.w3.org/TR/2001/REC-SVG-20010904/DTD/svg10.dtd">
<svg version="1.0" xmlns="http://www.w3.org/2000/svg"
 width="512.000000pt" height="512.000000pt" viewBox="0 0 512.000000 512.000000"
 preserveAspectRatio="xMidYMid meet">
<metadata>
Created by potrace 1.14, written by Peter Selinger 2001-2017
</metadata>
<g transform="translate(0.000000,512.000000) scale(0.100000,-0.100000)"
fill="#000000" stroke="none">
<path d="M2160 5104 c-606 -93 -1110 -502 -1323 -1074 -36 -98 -72 -227 -82
-296 -3 -21 -8 -50 -10 -64 -3 -14 -7 -61 -10 -105 -4 -44 -10 -84 -15 -89 -5
-5 -42 -18 -82 -28 -257 -65 -477 -259 -577 -508 -107 -270 -73 -565 92 -810
53 -77 178 -192 259 -238 166 -94 279 -117 570 -117 l208 0 0 -250 c-1 -207
-3 -253 -16 -270 -13 -18 -28 -20 -142 -23 l-127 -3 -22 35 c-51 80 -159 115
-248 82 -140 -54 -175 -240 -65 -340 50 -45 77 -56 141 -56 76 0 136 33 176
96 l18 30 126 1 c71 0 141 6 163 13 49 16 102 63 128 114 20 39 22 56 22 303
1 226 3 262 16 265 8 2 116 4 240 3 l225 -1 3 -536 c2 -513 1 -537 -17 -559
-18 -22 -26 -23 -137 -25 -127 -1 -144 1 -144 20 0 17 -59 70 -100 91 -40 21
-116 21 -163 1 -129 -54 -165 -222 -71 -326 91 -101 253 -88 327 25 l22 35
124 0 c68 0 142 5 163 12 54 16 124 87 139 141 8 29 12 211 14 577 1 294 3
537 3 540 2 4 431 5 478 1 8 -1 11 -198 11 -685 l0 -684 -42 -30 c-115 -81
-113 -251 4 -336 39 -28 50 -31 116 -31 66 0 77 3 116 31 24 18 54 52 67 75
48 88 12 216 -74 270 l-33 20 0 684 c1 585 3 685 15 686 18 0 324 0 412 0 l68
-1 0 -543 c0 -432 3 -551 14 -578 23 -59 61 -100 114 -125 45 -21 66 -24 181
-25 l130 0 30 -42 c113 -157 358 -85 369 108 3 52 -18 113 -51 149 -55 59
-163 83 -237 52 -34 -14 -92 -70 -101 -97 -4 -13 -25 -15 -131 -14 -118 1
-127 2 -145 23 -17 21 -18 55 -18 557 l0 535 85 1 c46 0 113 0 149 0 36 0 107
0 158 0 l92 -1 1 -262 c2 -296 4 -309 72 -370 57 -51 98 -61 245 -61 87 0 127
-4 127 -11 0 -19 73 -88 110 -104 75 -31 171 -10 225 50 45 48 57 80 57 140 1
192 -233 279 -359 134 -18 -20 -33 -41 -33 -46 0 -6 -48 -10 -116 -10 -110 0
-149 8 -166 34 -4 6 -8 122 -8 259 0 228 1 247 18 247 109 3 251 10 267 13
138 33 289 89 347 129 14 10 29 18 33 18 3 0 38 24 78 54 227 169 370 390 433
671 23 98 26 352 6 431 -8 29 -15 58 -16 65 -38 201 -208 467 -383 600 -32 24
-60 46 -63 49 -9 9 -62 39 -130 74 -135 70 -283 110 -437 120 -40 2 -76 7 -81
10 -6 3 -22 36 -37 73 -14 38 -47 106 -72 153 -242 451 -648 754 -1153 860
-136 29 -427 36 -570 14z"/>
</g>
</svg>
